<?xml version="1.0" encoding="utf-8"?>
<!-- Generator: Adobe Illustrator 19.1.0, SVG Export Plug-In . SVG Version: 6.00 Build 0)  -->
<svg version="1.1" id="Layer_1" xmlns="http://www.w3.org/2000/svg" xmlns:xlink="http://www.w3.org/1999/xlink" x="0px" y="0px"
	 viewBox="-254 327 66 68" style="enable-background:new -254 327 66 68;" xml:space="preserve">
<style type="text/css">
	.st0{fill:#357EEB;}
	.st1{fill:none;stroke:#0D338A;stroke-width:2;stroke-linecap:round;stroke-linejoin:round;stroke-miterlimit:10;}
</style>
<g>
	<g>
		<path class="st0" d="M-203,329.7l12.3,12.3h-12.2c-0.1,0-0.1-0.1-0.1-0.1V329.7 M-202.9,327c-1.2,0-2.1,0.9-2.1,2.1v12.8
			c0,1.1,0.9,2.1,2.1,2.1h12.8c1.1,0,2.1-0.9,2.1-2.1L-202.9,327L-202.9,327z"/>
	</g>
</g>
<g>
	<g>
		<path class="st0" d="M-203.4,329l13.4,13.7V391c0,1.1-0.9,2-2,2h-36.5c-1.1,0-2-0.9-2-2v-60c0-1.1,0.9-2,2-2H-203.4 M-202.6,327
			h-25.9c-2.2,0-4,1.8-4,4v60c0,2.2,1.8,4,4,4h36.5c2.2,0,4-1.8,4-4v-49.1L-202.6,327L-202.6,327z"/>
	</g>
</g>
<line class="st1" x1="-253" y1="357" x2="-237.8" y2="357"/>
<line class="st1" x1="-223.2" y1="357" x2="-196.5" y2="357"/>
<line class="st1" x1="-223.2" y1="363.2" x2="-196.5" y2="363.2"/>
<line class="st1" x1="-223.2" y1="369.6" x2="-196.5" y2="369.6"/>
<line class="st1" x1="-210.7" y1="383.2" x2="-196.5" y2="383.2"/>
<line class="st1" x1="-249.1" y1="363.2" x2="-237.8" y2="363.2"/>
<line class="st1" x1="-245.4" y1="369.6" x2="-237.8" y2="369.6"/>
</svg>
