<?xml version="1.0" encoding="utf-8"?>
<!-- Generator: Adobe Illustrator 19.2.0, SVG Export Plug-In . SVG Version: 6.00 Build 0)  -->
<svg version="1.1" id="icon" xmlns="http://www.w3.org/2000/svg" xmlns:xlink="http://www.w3.org/1999/xlink" x="0px" y="0px"
	 viewBox="0 0 70 70" style="enable-background:new 0 0 70 70;" xml:space="preserve">
<style type="text/css">
	.st0{fill:none;stroke:#1B49A0;stroke-width:2;stroke-miterlimit:10;}
	.st1{fill:none;stroke:#1B49A0;stroke-width:2;stroke-linecap:round;stroke-miterlimit:10;}
	.st2{fill:none;stroke:#357EEB;stroke-width:2;stroke-linecap:round;stroke-miterlimit:10;}
	.st3{fill:#357EEB;}
</style>
<line class="st0" x1="35" y1="14" x2="35" y2="56"/>
<line class="st0" x1="56" y1="35" x2="14" y2="35"/>
<line class="st1" x1="53" y1="45.5" x2="17" y2="45.5"/>
<line class="st1" x1="53" y1="24.5" x2="17" y2="24.5"/>
<circle class="st0" cx="35" cy="35" r="21"/>
<path class="st1" d="M34,55.5C28,51.4,24,43.7,24,35c0-8.7,4-16.4,10-20.5"/>
<path class="st1" d="M36,55.5c6-4.1,10-11.8,10-20.5c0-8.7-4-16.4-10-20.5"/>
<g>
	<g>
		<path class="st2" d="M13.9,12.7C24.5,2.1,41.1,1.2,52.8,9.9"/>
		<g>
			<polygon class="st3" points="50.2,11.7 56.1,12.7 54,7.1 			"/>
		</g>
	</g>
</g>
<g>
	<g>
		<path class="st2" d="M57.3,13.9c10.6,10.6,11.5,27.2,2.8,38.9"/>
		<g>
			<polygon class="st3" points="58.3,50.2 57.3,56.1 62.9,54 			"/>
		</g>
	</g>
</g>
<g>
	<g>
		<path class="st2" d="M56.1,57.3c-10.8,10.8-27.8,11.6-39.5,2.4"/>
		<g>
			<polygon class="st3" points="18.8,58.2 13.9,57.3 15.6,62 			"/>
		</g>
	</g>
</g>
<g>
	<g>
		<path class="st2" d="M12.7,56.1C1.9,45.3,1.2,28.3,10.3,16.6"/>
		<g>
			<polygon class="st3" points="11.8,18.8 12.7,13.9 8,15.6 			"/>
		</g>
	</g>
</g>
</svg>
